<svg xmlns="http://www.w3.org/2000/svg" xmlns:xlink="http://www.w3.org/1999/xlink" width="199.6" height="45.8" viewBox="0 0 199.6 45.8">
    <defs>
        <style>
            .cls-1{fill:#e7629a}.cls-2{fill:url(#linear-gradient)}.cls-3{fill:#f7f2f3}.cls-4{fill:url(#linear-gradient-2)}.cls-5{fill:#f37c5d}.cls-6{fill:url(#linear-gradient-3)}.cls-7{fill:url(#linear-gradient-4)}
        </style>
        <linearGradient id="linear-gradient" x2=".998" y1=".499" y2=".499" gradientUnits="objectBoundingBox">
            <stop offset="0" stop-color="#007672"/>
            <stop offset=".23" stop-color="#128985"/>
            <stop offset=".734" stop-color="#35afaa"/>
            <stop offset="1" stop-color="#42beb8"/>
        </linearGradient>
        <linearGradient id="linear-gradient-2" x1=".001" x2="1.001" y1=".501" y2=".501" xlink:href="#linear-gradient"/>
        <linearGradient id="linear-gradient-3" x1="-.001" x2=".997" y1=".501" y2=".501" gradientUnits="objectBoundingBox">
            <stop offset="0" stop-color="#f17aa9"/>
            <stop offset="1" stop-color="#f17aa9" stop-opacity="0"/>
        </linearGradient>
        <linearGradient id="linear-gradient-4" x1=".001" x2="1" y1=".5" y2=".5" xlink:href="#linear-gradient-3"/>
    </defs>
    <g id="Group_732" data-name="Group 732" transform="translate(-427 153)">
        <g id="Group_731" data-name="Group 731">
            <path id="Path_199" d="M68.7 84.9h8a19.839 19.839 0 0 1 5.3.6 9.306 9.306 0 0 1 4 2.2c3.1 2.7 4.7 6.8 4.7 12.3a25.653 25.653 0 0 1-.5 5 13.353 13.353 0 0 1-1.5 4.1 13.131 13.131 0 0 1-2.5 3.2 12.706 12.706 0 0 1-2.7 1.8 15.832 15.832 0 0 1-3.1.9 21.325 21.325 0 0 1-3.7.3h-8a5.214 5.214 0 0 1-2.5-.5 2.208 2.208 0 0 1-1.1-1.4 7.8 7.8 0 0 1-.3-2.4V88.6a4.03 4.03 0 0 1 .9-2.9 5.329 5.329 0 0 1 3-.8zm2.4 4.8v20.5h4.6a16.271 16.271 0 0 0 2.4-.1 11.627 11.627 0 0 0 1.8-.4 4.171 4.171 0 0 0 1.6-.9c2-1.7 3.1-4.7 3.1-9a13.119 13.119 0 0 0-1.4-6.7 5.868 5.868 0 0 0-3.3-2.8 16.52 16.52 0 0 0-4.8-.6z" data-name="Path 199" transform="translate(426.8 -230.1)"/>
            <path id="Path_200" d="M101.3 87.8v8.4a12.908 12.908 0 0 1 2.1-2 8.167 8.167 0 0 1 2.3-1.1 10.952 10.952 0 0 1 2.7-.4 7.9 7.9 0 0 1 3.8.9 6.506 6.506 0 0 1 2.6 2.6 5.724 5.724 0 0 1 .8 2.3 23.284 23.284 0 0 1 .2 2.9v10.8a4.033 4.033 0 0 1-.8 2.6 2.583 2.583 0 0 1-2.1.9c-1.9 0-2.8-1.1-2.8-3.4v-9.5a9.492 9.492 0 0 0-.8-4.2 3.185 3.185 0 0 0-3.1-1.5 4.388 4.388 0 0 0-2.7.9 5.782 5.782 0 0 0-1.8 2.3 14.422 14.422 0 0 0-.5 4.5v7.4a3.562 3.562 0 0 1-.8 2.5 2.583 2.583 0 0 1-2.1.9c-1.9 0-2.8-1.1-2.8-3.4V87.8a4.023 4.023 0 0 1 .7-2.6 2.9 2.9 0 0 1 4.2 0 3.2 3.2 0 0 1 .9 2.6z" data-name="Path 200" transform="translate(426.8 -230.1)"/>
            <path id="Path_201" d="M135.6 112.5a15.689 15.689 0 0 1-4 2.4 11.758 11.758 0 0 1-4.3.8 7.9 7.9 0 0 1-3.8-.9 6.194 6.194 0 0 1-2.5-2.3 5.949 5.949 0 0 1-.9-3.2 5.437 5.437 0 0 1 1.5-3.9 7.471 7.471 0 0 1 4-2.2c.4-.1 1.2-.3 2.7-.6 1.4-.3 2.6-.6 3.6-.8a27.737 27.737 0 0 0 3.3-.9 6.516 6.516 0 0 0-.9-3.3c-.5-.7-1.6-1-3.3-1a6.733 6.733 0 0 0-3.2.6 6.4 6.4 0 0 0-1.9 1.8c-.5.8-.9 1.3-1.1 1.6s-.7.4-1.4.4a2.271 2.271 0 0 1-1.6-.6 1.865 1.865 0 0 1-.7-1.6 4.771 4.771 0 0 1 1.1-2.9 7.737 7.737 0 0 1 3.3-2.3 14.722 14.722 0 0 1 5.5-.9 14.982 14.982 0 0 1 5.8.9 5.5 5.5 0 0 1 3 2.8 11.771 11.771 0 0 1 .9 5v6.5a12.573 12.573 0 0 0 .5 3.3 7.357 7.357 0 0 1 .5 2.2 2.254 2.254 0 0 1-.8 1.6 2.567 2.567 0 0 1-1.8.7 2.668 2.668 0 0 1-1.7-.8 12.464 12.464 0 0 1-1.8-2.4zm-.4-8.2c-.8.3-2 .6-3.6 1-1.6.3-2.7.6-3.3.7a5.559 5.559 0 0 0-1.7.9 2.241 2.241 0 0 0-.8 1.9 2.7 2.7 0 0 0 1 2.2 3.486 3.486 0 0 0 2.5.9 6.7 6.7 0 0 0 3.1-.7 5.535 5.535 0 0 0 2.1-1.9 8.9 8.9 0 0 0 .8-4.2v-.8z" data-name="Path 201" transform="translate(426.8 -230.1)"/>
            <path id="Path_202" d="M160.5 113.1l-5-8.2-3.1 2.9v4.5a3.328 3.328 0 0 1-.9 2.5 2.665 2.665 0 0 1-2 .9 2.384 2.384 0 0 1-2-.9 3.847 3.847 0 0 1-.7-2.6v-24a4.789 4.789 0 0 1 .7-2.9 2.393 2.393 0 0 1 2.1-1 2.583 2.583 0 0 1 2.1.9 4.033 4.033 0 0 1 .8 2.6v13.7l6.3-6.6a22.162 22.162 0 0 1 1.8-1.7 2.456 2.456 0 0 1 1.5-.5 2.41 2.41 0 0 1 1.8.7 2.06 2.06 0 0 1 .7 1.7c0 .8-.8 1.9-2.3 3.3l-3 2.7 5.8 9.1q.6 1.05.9 1.5a2.236 2.236 0 0 1 .3 1 2.817 2.817 0 0 1-.7 2.1 2.56 2.56 0 0 1-1.9.8 2.111 2.111 0 0 1-1.6-.6 6.53 6.53 0 0 1-1.6-1.9z" data-name="Path 202" transform="translate(426.8 -230.1)"/>
            <path id="Path_203" d="M183.3 112.5a15.689 15.689 0 0 1-4 2.4 11.758 11.758 0 0 1-4.3.8 7.9 7.9 0 0 1-3.8-.9 6.194 6.194 0 0 1-2.5-2.3 5.949 5.949 0 0 1-.9-3.2 5.437 5.437 0 0 1 1.5-3.9 7.471 7.471 0 0 1 4-2.2c.4-.1 1.2-.3 2.7-.6 1.4-.3 2.6-.6 3.6-.8a27.737 27.737 0 0 0 3.3-.9 6.516 6.516 0 0 0-.9-3.3c-.5-.7-1.6-1-3.3-1a6.733 6.733 0 0 0-3.2.6 6.4 6.4 0 0 0-1.9 1.8c-.5.8-.9 1.3-1.1 1.6s-.7.4-1.4.4a2.271 2.271 0 0 1-1.6-.6 1.865 1.865 0 0 1-.7-1.6 4.771 4.771 0 0 1 1.1-2.9 7.737 7.737 0 0 1 3.3-2.3 14.722 14.722 0 0 1 5.5-.9 14.982 14.982 0 0 1 5.8.9 5.5 5.5 0 0 1 3 2.8 11.771 11.771 0 0 1 .9 5v6.5a12.573 12.573 0 0 0 .5 3.3 7.357 7.357 0 0 1 .5 2.2 2.254 2.254 0 0 1-.8 1.6 2.567 2.567 0 0 1-1.8.7 2.668 2.668 0 0 1-1.7-.8 12.464 12.464 0 0 1-1.8-2.4zm-.4-8.2c-.8.3-2 .6-3.6 1-1.6.3-2.7.6-3.3.7a5.559 5.559 0 0 0-1.7.9 2.241 2.241 0 0 0-.8 1.9 2.7 2.7 0 0 0 1 2.2 3.486 3.486 0 0 0 2.5.9 6.7 6.7 0 0 0 3.1-.7 5.535 5.535 0 0 0 2.1-1.9 8.9 8.9 0 0 0 .8-4.2v-.8z" data-name="Path 203" transform="translate(426.8 -230.1)"/>
            <path id="Path_204" d="M197 90.1a2.724 2.724 0 0 1-2-.7 2.438 2.438 0 0 1-.8-2 2.518 2.518 0 0 1 .9-2 2.973 2.973 0 0 1 2-.8 2.64 2.64 0 0 1 1.9.7 2.319 2.319 0 0 1 .8 2 2.629 2.629 0 0 1-.8 2 2.568 2.568 0 0 1-2 .8z" class="cls-1" data-name="Path 204" transform="translate(426.8 -230.1)"/>
            <path id="Path_205" d="M199.8 95.9v16.3a4.033 4.033 0 0 1-.8 2.6 2.672 2.672 0 0 1-4 0 3.742 3.742 0 0 1-.8-2.5V96.1a3.562 3.562 0 0 1 .8-2.5 2.438 2.438 0 0 1 2-.8 2.792 2.792 0 0 1 2 .8 3.2 3.2 0 0 1 .8 2.3z" data-name="Path 205" transform="translate(426.8 -230.1)"/>
        </g>
        <g id="Group_730" data-name="Group 730" transform="translate(426.8 -230.1)">
            <path id="Path_206" d="M23.2 79.1l.2 41.9C20.5 110.7 13 103.6.9 99.4c7.8-3.1 13.7-7 17.6-11.7a25.54 25.54 0 0 0 2.7-4 26.684 26.684 0 0 0 2-4.6z" class="cls-2" data-name="Path 206"/>
            <path id="Path_207" d="M18.3 100.6l2.9-.2-.2-16.5-2.7 4z" class="cls-3" data-name="Path 207"/>
            <path id="Path_208" d="M16.3 97.8h-2.1v-6l1.9-1.6z" class="cls-3" data-name="Path 208"/>
            <g id="Group_727" data-name="Group 727">
                <path id="Path_209" d="M23.7 122.9l-.5-1.9C20.4 110.9 12.9 103.7.9 99.6l-.7-.2.7-.3c7.8-3.1 13.7-7 17.5-11.7a35.056 35.056 0 0 0 2.7-4 22.52 22.52 0 0 0 1.9-4.5l.5-1.7zm-22-23.5c11.1 4 18.3 10.6 21.4 19.8L23 80.6a29.173 29.173 0 0 1-1.4 3.1 22.113 22.113 0 0 1-2.8 4q-5.7 7.05-17.1 11.7z" class="cls-4" data-name="Path 209"/>
            </g>
            <g id="Group_728" data-name="Group 728">
                <path id="Path_210" d="M36.1 106.5c.1 0 .1-.1.2-.1a52.4 52.4 0 0 1 11.1-5.8c-12-4.1-19.6-11.3-22.5-21.6l.2 41.9a22.52 22.52 0 0 1 1.9-4.5 35.056 35.056 0 0 1 2.7-4 33.435 33.435 0 0 1 6.4-5.9c-.1.1 0 .1 0 0z" class="cls-5" data-name="Path 210"/>
                <path id="Path_211" d="M36.1 106.5c.1 0 .1-.1.2-.1a52.4 52.4 0 0 1 11.1-5.8c-12-4.1-19.6-11.3-22.5-21.6l.2 41.9a22.52 22.52 0 0 1 1.9-4.5 35.056 35.056 0 0 1 2.7-4 33.435 33.435 0 0 1 6.4-5.9c-.1.1 0 .1 0 0z" class="cls-6" data-name="Path 211"/>
            </g>
            <path id="Path_212" d="M29.3 99.6l-2.9.1.2 16.6 2.7-4z" class="cls-3" data-name="Path 212"/>
            <path id="Path_213" d="M31.9 101.9H34v5.9l-1.9 1.6z" class="cls-3" data-name="Path 213"/>
            <g id="Group_729" data-name="Group 729">
                <path id="Path_214" d="M24.7 122.7l-.2-45.6.5 1.9c2.8 10.1 10.3 17.3 22.3 21.4l.7.2-.7.3c-7.8 3.1-13.7 7-17.5 11.7a35.056 35.056 0 0 0-2.7 4l-.2-.1.2.1a22.52 22.52 0 0 0-1.9 4.5zm.4-41.9l.2 38.5a29.173 29.173 0 0 1 1.4-3.1 28.009 28.009 0 0 1 2.7-4c3.8-4.6 9.5-8.5 17.1-11.6C35.4 96.7 28.2 90 25.1 80.8z" class="cls-7" data-name="Path 214"/>
            </g>
            <path id="Path_215" d="M37.4 103.6v1.8l-1.5.7-.1-2.5h1.6" class="cls-3" data-name="Path 215"/>
            <path id="Path_216" d="M11.3 96.2v-1.9l1.4-.7.1 2.6h-1.5" class="cls-3" data-name="Path 216"/>
        </g>
    </g>
</svg>
